<mxfile host="app.diagrams.net" modified="2024-04-20T14:47:23.324Z" agent="Mozilla/5.0 (Macintosh; Intel Mac OS X 10_15_7) AppleWebKit/537.36 (KHTML, like Gecko) Chrome/123.0.0.0 Safari/537.36" etag="CVELq1EOKIZ633pFwgJa" version="24.0.2" type="device">
  <diagram name="Page-1" id="GOQJ0K67UIuzi4y1aPBb">
    <mxGraphModel dx="954" dy="606" grid="1" gridSize="10" guides="1" tooltips="1" connect="1" arrows="1" fold="1" page="1" pageScale="1" pageWidth="850" pageHeight="1100" math="0" shadow="0">
      <root>
        <mxCell id="0" />
        <mxCell id="1" parent="0" />
        <mxCell id="WBwfV_ToJrabEPW_bGLZ-1" value="Function1&lt;br&gt;&lt;br&gt;ckeck on dublicates&lt;br&gt;search CI&lt;br&gt;genereting (MAP)&lt;br&gt;" style="ellipse;whiteSpace=wrap;html=1;" parent="1" vertex="1">
          <mxGeometry x="20" y="210" width="180" height="80" as="geometry" />
        </mxCell>
        <mxCell id="WBwfV_ToJrabEPW_bGLZ-2" value="Function2&lt;br&gt;Main&lt;br&gt;processFunction&lt;br&gt;(MAP)&lt;br&gt;generating bodys" style="ellipse;whiteSpace=wrap;html=1;" parent="1" vertex="1">
          <mxGeometry x="350" y="410" width="140" height="80" as="geometry" />
        </mxCell>
        <mxCell id="WBwfV_ToJrabEPW_bGLZ-5" style="edgeStyle=orthogonalEdgeStyle;rounded=0;orthogonalLoop=1;jettySize=auto;html=1;" parent="1" source="WBwfV_ToJrabEPW_bGLZ-3" edge="1">
          <mxGeometry relative="1" as="geometry">
            <mxPoint x="690" y="480" as="targetPoint" />
            <Array as="points">
              <mxPoint x="700" y="240" />
              <mxPoint x="700" y="380" />
              <mxPoint x="691" y="380" />
            </Array>
          </mxGeometry>
        </mxCell>
        <mxCell id="WBwfV_ToJrabEPW_bGLZ-3" value="Function3&lt;br&gt;&lt;br&gt;(send label)" style="ellipse;whiteSpace=wrap;html=1;" parent="1" vertex="1">
          <mxGeometry x="670" y="190" width="120" height="80" as="geometry" />
        </mxCell>
        <mxCell id="WBwfV_ToJrabEPW_bGLZ-8" value="Loop (key field)&lt;br&gt;line: 168" style="shape=cylinder3;whiteSpace=wrap;html=1;boundedLbl=1;backgroundOutline=1;size=15;" parent="1" vertex="1">
          <mxGeometry x="340" y="90" width="150" height="80" as="geometry" />
        </mxCell>
        <mxCell id="WBwfV_ToJrabEPW_bGLZ-9" value="Centra&lt;br&gt;receving(labels)" style="shape=cylinder3;whiteSpace=wrap;html=1;boundedLbl=1;backgroundOutline=1;size=15;" parent="1" vertex="1">
          <mxGeometry x="630" y="480" width="130" height="80" as="geometry" />
        </mxCell>
        <mxCell id="WBwfV_ToJrabEPW_bGLZ-13" value="" style="endArrow=classic;html=1;rounded=0;exitX=0.55;exitY=1.013;exitDx=0;exitDy=0;exitPerimeter=0;entryX=0.5;entryY=0;entryDx=0;entryDy=0;" parent="1" source="WBwfV_ToJrabEPW_bGLZ-8" target="WBwfV_ToJrabEPW_bGLZ-2" edge="1">
          <mxGeometry width="50" height="50" relative="1" as="geometry">
            <mxPoint x="375" y="320" as="sourcePoint" />
            <mxPoint x="425" y="270" as="targetPoint" />
          </mxGeometry>
        </mxCell>
        <mxCell id="WBwfV_ToJrabEPW_bGLZ-14" value="" style="endArrow=classic;html=1;rounded=0;exitX=0;exitY=1;exitDx=0;exitDy=-15;exitPerimeter=0;" parent="1" source="WBwfV_ToJrabEPW_bGLZ-8" edge="1">
          <mxGeometry width="50" height="50" relative="1" as="geometry">
            <mxPoint x="360" y="180" as="sourcePoint" />
            <mxPoint x="210" y="240" as="targetPoint" />
          </mxGeometry>
        </mxCell>
        <mxCell id="WBwfV_ToJrabEPW_bGLZ-15" value="" style="endArrow=classic;html=1;rounded=0;exitX=1;exitY=1;exitDx=0;exitDy=-15;exitPerimeter=0;entryX=-0.046;entryY=0.425;entryDx=0;entryDy=0;entryPerimeter=0;" parent="1" source="WBwfV_ToJrabEPW_bGLZ-8" target="WBwfV_ToJrabEPW_bGLZ-3" edge="1">
          <mxGeometry width="50" height="50" relative="1" as="geometry">
            <mxPoint x="560" y="250" as="sourcePoint" />
            <mxPoint x="610" y="200" as="targetPoint" />
          </mxGeometry>
        </mxCell>
        <mxCell id="WBwfV_ToJrabEPW_bGLZ-16" value="" style="endArrow=classic;html=1;rounded=0;exitX=1;exitY=1;exitDx=0;exitDy=0;entryX=0.096;entryY=0.125;entryDx=0;entryDy=0;entryPerimeter=0;" parent="1" source="WBwfV_ToJrabEPW_bGLZ-1" target="WBwfV_ToJrabEPW_bGLZ-2" edge="1">
          <mxGeometry width="50" height="50" relative="1" as="geometry">
            <mxPoint x="360" y="330" as="sourcePoint" />
            <mxPoint x="410" y="280" as="targetPoint" />
          </mxGeometry>
        </mxCell>
        <mxCell id="WBwfV_ToJrabEPW_bGLZ-17" value="" style="endArrow=classic;html=1;rounded=0;entryX=0.083;entryY=0.875;entryDx=0;entryDy=0;entryPerimeter=0;" parent="1" target="WBwfV_ToJrabEPW_bGLZ-3" edge="1">
          <mxGeometry width="50" height="50" relative="1" as="geometry">
            <mxPoint x="480" y="440" as="sourcePoint" />
            <mxPoint x="530" y="390" as="targetPoint" />
          </mxGeometry>
        </mxCell>
        <mxCell id="WBwfV_ToJrabEPW_bGLZ-18" value="sending MAP" style="text;html=1;align=center;verticalAlign=middle;resizable=0;points=[];autosize=1;strokeColor=none;fillColor=none;" parent="1" vertex="1">
          <mxGeometry x="225" y="318" width="90" height="30" as="geometry" />
        </mxCell>
        <mxCell id="WBwfV_ToJrabEPW_bGLZ-19" value="GET MAP" style="text;html=1;align=center;verticalAlign=middle;resizable=0;points=[];autosize=1;strokeColor=none;fillColor=none;" parent="1" vertex="1">
          <mxGeometry x="380" y="490" width="80" height="30" as="geometry" />
        </mxCell>
        <mxCell id="WBwfV_ToJrabEPW_bGLZ-22" value="sending bodys" style="text;html=1;align=center;verticalAlign=middle;resizable=0;points=[];autosize=1;strokeColor=none;fillColor=none;" parent="1" vertex="1">
          <mxGeometry x="480" y="340" width="100" height="30" as="geometry" />
        </mxCell>
        <mxCell id="WBwfV_ToJrabEPW_bGLZ-23" value="sending labels" style="text;html=1;align=center;verticalAlign=middle;resizable=0;points=[];autosize=1;strokeColor=none;fillColor=none;" parent="1" vertex="1">
          <mxGeometry x="590" y="370" width="100" height="30" as="geometry" />
        </mxCell>
      </root>
    </mxGraphModel>
  </diagram>
</mxfile>
